<svg width="15" height="15" viewBox="0 0 15 15" fill="none" xmlns="http://www.w3.org/2000/svg">
<path d="M3.32432 9.06468L2.80219 11.0139L0.893818 11.0542C0.323496 9.99641 0 8.78612 0 7.49999C0 6.25631 0.302461 5.0835 0.838594 4.05081H0.839004L2.53799 4.3623L3.28225 6.05108C3.12647 6.50522 3.04157 6.99272 3.04157 7.49999C3.04163 8.05054 3.14136 8.57803 3.32432 9.06468Z" fill="#FBBB00"/>
<path d="M14.869 6.09891C14.9551 6.5526 15 7.02114 15 7.5C15 8.03695 14.9435 8.56072 14.836 9.06595C14.4709 10.7852 13.5169 12.2864 12.1954 13.3488L12.1949 13.3484L10.055 13.2392L9.75211 11.3485C10.629 10.8342 11.3143 10.0294 11.6753 9.06595H7.66488V6.09891H11.7338H14.869Z" fill="#518EF8"/>
<path d="M12.1949 13.3484L12.1953 13.3488C10.91 14.3819 9.27732 15 7.5 15C4.64382 15 2.16059 13.4036 0.893818 11.0543L3.32432 9.06471C3.95768 10.7551 5.58832 11.9584 7.5 11.9584C8.32169 11.9584 9.09149 11.7363 9.75205 11.3485L12.1949 13.3484Z" fill="#28B446"/>
<path d="M12.2872 1.72664L9.85755 3.71578C9.17391 3.28846 8.36578 3.0416 7.5 3.0416C5.54505 3.0416 3.88392 4.30011 3.28228 6.05109L0.839006 4.05082H0.838596C2.08682 1.64423 4.60137 0 7.5 0C9.31978 0 10.9883 0.648223 12.2872 1.72664Z" fill="#FFB8B3"/>
</svg>
